<svg width="514" height="98" viewBox="0 0 514 98" fill="none" xmlns="http://www.w3.org/2000/svg">
<path d="M42.7741 25.1889C42.4901 22.3243 41.2708 20.099 39.1165 18.5128C36.9621 16.9266 34.0384 16.1335 30.3452 16.1335C27.8357 16.1335 25.7169 16.4886 23.9886 17.1989C22.2604 17.8854 20.9347 18.8442 20.0114 20.0753C19.1117 21.3063 18.6619 22.7031 18.6619 24.2656C18.6146 25.5677 18.8868 26.7041 19.4787 27.6747C20.0942 28.6454 20.9347 29.4858 22 30.196C23.0653 30.8826 24.2964 31.4863 25.6932 32.0071C27.09 32.5043 28.5814 32.9304 30.1676 33.2855L36.7017 34.848C39.8741 35.5582 42.786 36.5052 45.4375 37.6889C48.089 38.8726 50.3854 40.3286 52.3267 42.0568C54.268 43.785 55.7713 45.821 56.8366 48.1648C57.9257 50.5085 58.482 53.1955 58.5057 56.2259C58.482 60.6766 57.3456 64.5355 55.0966 67.8026C52.8712 71.0459 49.6515 73.5672 45.4375 75.3665C41.2472 77.142 36.1927 78.0298 30.2741 78.0298C24.4029 78.0298 19.2893 77.1302 14.9332 75.331C10.6009 73.5317 7.21544 70.8684 4.77699 67.3409C2.36222 63.7898 1.09564 59.3982 0.977273 54.1662H15.8565C16.0223 56.6046 16.7206 58.6406 17.9517 60.2741C19.2064 61.884 20.8755 63.1032 22.9588 63.9318C25.0658 64.7367 27.4451 65.1392 30.0966 65.1392C32.7008 65.1392 34.9616 64.7604 36.8793 64.0028C38.8205 63.2453 40.3239 62.1918 41.3892 60.8423C42.4545 59.4929 42.9872 57.9422 42.9872 56.1903C42.9872 54.5568 42.5019 53.1837 41.5312 52.071C40.5843 50.9583 39.1875 50.0114 37.3409 49.2301C35.518 48.4489 33.2808 47.7386 30.6293 47.0994L22.7102 45.1108C16.5786 43.6193 11.7372 41.2874 8.18608 38.1151C4.63494 34.9427 2.87121 30.6695 2.89489 25.2955C2.87121 20.892 4.04309 17.045 6.41051 13.7543C8.80161 10.4635 12.0805 7.89489 16.2472 6.04829C20.4138 4.2017 25.1487 3.27841 30.4517 3.27841C35.8494 3.27841 40.5606 4.2017 44.5852 6.04829C48.6335 7.89489 51.7822 10.4635 54.0312 13.7543C56.2803 17.045 57.4403 20.8565 57.5114 25.1889H42.7741ZM103.543 53.7756V22.4545H118.671V77H104.147V67.0923H103.578C102.347 70.2884 100.3 72.857 97.435 74.7983C94.5941 76.7396 91.1258 77.7102 87.0302 77.7102C83.3844 77.7102 80.1765 76.8816 77.4066 75.2244C74.6367 73.5672 72.4705 71.2116 70.908 68.1577C69.3692 65.1037 68.5879 61.446 68.5643 57.1847V22.4545H83.6921V54.4858C83.7158 57.7055 84.5799 60.2505 86.2844 62.1207C87.989 63.991 90.2736 64.9261 93.1381 64.9261C94.9611 64.9261 96.6656 64.5118 98.2518 63.6832C99.838 62.831 101.116 61.5762 102.087 59.919C103.081 58.2618 103.567 56.214 103.543 53.7756ZM130.771 97.4545V22.4545H145.686V31.6165H146.361C147.024 30.1487 147.982 28.6572 149.237 27.142C150.516 25.6032 152.173 24.3248 154.209 23.3068C156.268 22.2652 158.825 21.7443 161.879 21.7443C165.857 21.7443 169.526 22.786 172.888 24.8693C176.25 26.929 178.937 30.0421 180.949 34.2088C182.961 38.3518 183.967 43.5483 183.967 49.7983C183.967 55.8826 182.985 61.0199 181.02 65.2102C179.079 69.3769 176.427 72.5374 173.065 74.6918C169.727 76.8224 165.987 77.8878 161.844 77.8878C158.908 77.8878 156.411 77.4025 154.351 76.4318C152.315 75.4612 150.646 74.242 149.344 72.7741C148.042 71.2827 147.047 69.7794 146.361 68.2642H145.899V97.4545H130.771ZM145.58 49.7273C145.58 52.9706 146.029 55.7997 146.929 58.2145C147.829 60.6293 149.131 62.5114 150.835 63.8608C152.54 65.1866 154.611 65.8494 157.05 65.8494C159.512 65.8494 161.595 65.1747 163.3 63.8253C165.004 62.4522 166.295 60.5582 167.17 58.1435C168.07 55.705 168.52 52.8996 168.52 49.7273C168.52 46.5786 168.082 43.8087 167.206 41.4176C166.33 39.0265 165.04 37.1562 163.335 35.8068C161.631 34.4574 159.536 33.7827 157.05 33.7827C154.588 33.7827 152.504 34.4337 150.8 35.7358C149.119 37.0379 147.829 38.8845 146.929 41.2756C146.029 43.6667 145.58 46.4839 145.58 49.7273ZM218.911 78.0653C213.3 78.0653 208.47 76.929 204.422 74.6562C200.397 72.3598 197.296 69.1165 195.118 64.9261C192.94 60.7121 191.851 55.7287 191.851 49.9759C191.851 44.3651 192.94 39.4408 195.118 35.2031C197.296 30.9654 200.362 27.6629 204.315 25.2955C208.293 22.928 212.956 21.7443 218.307 21.7443C221.905 21.7443 225.255 22.3243 228.357 23.4844C231.482 24.6207 234.204 26.3371 236.524 28.6335C238.868 30.9299 240.691 33.8182 241.993 37.2983C243.295 40.7547 243.946 44.803 243.946 49.4432V53.598H197.888V44.223H229.706C229.706 42.045 229.232 40.1155 228.286 38.4347C227.339 36.7538 226.025 35.4399 224.344 34.4929C222.687 33.5223 220.757 33.0369 218.555 33.0369C216.259 33.0369 214.223 33.5696 212.447 34.6349C210.696 35.6766 209.322 37.0852 208.328 38.8608C207.334 40.6127 206.825 42.5658 206.801 44.7202V53.6335C206.801 56.3324 207.298 58.6643 208.293 60.6293C209.311 62.5942 210.743 64.1094 212.589 65.1747C214.436 66.2401 216.626 66.7727 219.159 66.7727C220.84 66.7727 222.379 66.536 223.776 66.0625C225.172 65.589 226.368 64.8788 227.362 63.9318C228.357 62.9848 229.114 61.8248 229.635 60.4517L243.626 61.375C242.916 64.7367 241.46 67.6723 239.259 70.1818C237.08 72.6676 234.263 74.6089 230.807 76.0057C227.374 77.3788 223.409 78.0653 218.911 78.0653ZM253.818 77V22.4545H268.484V31.9716H269.053C270.047 28.5862 271.716 26.0294 274.06 24.3011C276.403 22.5492 279.102 21.6733 282.156 21.6733C282.914 21.6733 283.731 21.7206 284.607 21.8153C285.482 21.91 286.252 22.0402 286.915 22.206V35.6293C286.205 35.4162 285.222 35.2268 283.967 35.0611C282.713 34.8954 281.564 34.8125 280.523 34.8125C278.297 34.8125 276.309 35.2978 274.557 36.2685C272.829 37.2154 271.455 38.5412 270.438 40.2457C269.443 41.9503 268.946 43.9152 268.946 46.1406V77H253.818ZM357.618 25.1889C357.334 22.3243 356.115 20.099 353.96 18.5128C351.806 16.9266 348.882 16.1335 345.189 16.1335C342.679 16.1335 340.561 16.4886 338.832 17.1989C337.104 17.8854 335.778 18.8442 334.855 20.0753C333.955 21.3063 333.506 22.7031 333.506 24.2656C333.458 25.5677 333.731 26.7041 334.322 27.6747C334.938 28.6454 335.778 29.4858 336.844 30.196C337.909 30.8826 339.14 31.4863 340.537 32.0071C341.934 32.5043 343.425 32.9304 345.011 33.2855L351.545 34.848C354.718 35.5582 357.63 36.5052 360.281 37.6889C362.933 38.8726 365.229 40.3286 367.17 42.0568C369.112 43.785 370.615 45.821 371.68 48.1648C372.769 50.5085 373.326 53.1955 373.349 56.2259C373.326 60.6766 372.189 64.5355 369.94 67.8026C367.715 71.0459 364.495 73.5672 360.281 75.3665C356.091 77.142 351.036 78.0298 345.118 78.0298C339.247 78.0298 334.133 77.1302 329.777 75.331C325.445 73.5317 322.059 70.8684 319.621 67.3409C317.206 63.7898 315.939 59.3982 315.821 54.1662H330.7C330.866 56.6046 331.564 58.6406 332.795 60.2741C334.05 61.884 335.719 63.1032 337.803 63.9318C339.91 64.7367 342.289 65.1392 344.94 65.1392C347.545 65.1392 349.805 64.7604 351.723 64.0028C353.664 63.2453 355.168 62.1918 356.233 60.8423C357.298 59.4929 357.831 57.9422 357.831 56.1903C357.831 54.5568 357.346 53.1837 356.375 52.071C355.428 50.9583 354.031 50.0114 352.185 49.2301C350.362 48.4489 348.125 47.7386 345.473 47.0994L337.554 45.1108C331.422 43.6193 326.581 41.2874 323.03 38.1151C319.479 34.9427 317.715 30.6695 317.739 25.2955C317.715 20.892 318.887 17.045 321.254 13.7543C323.645 10.4635 326.924 7.89489 331.091 6.04829C335.258 4.2017 339.992 3.27841 345.295 3.27841C350.693 3.27841 355.404 4.2017 359.429 6.04829C363.477 7.89489 366.626 10.4635 368.875 13.7543C371.124 17.045 372.284 20.8565 372.355 25.1889H357.618ZM408.053 78.0653C402.537 78.0653 397.766 76.8935 393.742 74.5497C389.741 72.1823 386.651 68.8916 384.473 64.6776C382.295 60.4399 381.206 55.5275 381.206 49.9403C381.206 44.3059 382.295 39.3816 384.473 35.1676C386.651 30.9299 389.741 27.6392 393.742 25.2955C397.766 22.928 402.537 21.7443 408.053 21.7443C413.569 21.7443 418.328 22.928 422.328 25.2955C426.353 27.6392 429.454 30.9299 431.632 35.1676C433.81 39.3816 434.9 44.3059 434.9 49.9403C434.9 55.5275 433.81 60.4399 431.632 64.6776C429.454 68.8916 426.353 72.1823 422.328 74.5497C418.328 76.8935 413.569 78.0653 408.053 78.0653ZM408.124 66.3466C410.633 66.3466 412.729 65.6364 414.409 64.2159C416.09 62.7718 417.357 60.8068 418.209 58.321C419.085 55.8352 419.523 53.0062 419.523 49.8338C419.523 46.6615 419.085 43.8324 418.209 41.3466C417.357 38.8608 416.09 36.8958 414.409 35.4517C412.729 34.0076 410.633 33.2855 408.124 33.2855C405.591 33.2855 403.46 34.0076 401.732 35.4517C400.027 36.8958 398.737 38.8608 397.861 41.3466C397.009 43.8324 396.583 46.6615 396.583 49.8338C396.583 53.0062 397.009 55.8352 397.861 58.321C398.737 60.8068 400.027 62.7718 401.732 64.2159C403.46 65.6364 405.591 66.3466 408.124 66.3466ZM474.069 22.4545V33.8182H440.404V22.4545H474.069ZM448.11 77V18.5128C448.11 14.5592 448.879 11.2803 450.418 8.67613C451.98 6.07196 454.111 4.11884 456.81 2.81676C459.509 1.51467 462.575 0.863631 466.007 0.863631C468.328 0.863631 470.446 1.04119 472.364 1.39631C474.305 1.75142 475.749 2.07102 476.696 2.35511L473.998 13.7188C473.406 13.5294 472.672 13.3518 471.796 13.1861C470.944 13.0204 470.068 12.9375 469.168 12.9375C466.943 12.9375 465.392 13.4583 464.516 14.5C463.64 15.518 463.202 16.9503 463.202 18.7969V77H448.11ZM512.323 22.4545V33.8182H479.475V22.4545H512.323ZM486.933 9.38636H502.06V60.2386C502.06 61.6354 502.273 62.7244 502.7 63.5057C503.126 64.2633 503.718 64.7959 504.475 65.1037C505.256 65.4115 506.156 65.5653 507.174 65.5653C507.884 65.5653 508.594 65.5062 509.305 65.3878C510.015 65.2457 510.559 65.1392 510.938 65.0682L513.317 76.3253C512.56 76.562 511.495 76.8343 510.121 77.142C508.748 77.4735 507.079 77.6747 505.114 77.7457C501.469 77.8878 498.272 77.4025 495.526 76.2898C492.804 75.1771 490.685 73.4489 489.17 71.1051C487.655 68.7614 486.909 65.8021 486.933 62.2273V9.38636Z" fill="#66CDAA"/>
<path d="M42.7741 25.1889L41.779 25.2876L41.8684 26.1889H42.7741V25.1889ZM23.9886 17.1989L24.3579 18.1283L24.3688 18.1238L23.9886 17.1989ZM20.0114 20.0753L19.2113 19.4752L19.204 19.4853L20.0114 20.0753ZM18.6619 24.2656L19.6613 24.302L19.6619 24.2838V24.2656H18.6619ZM19.4787 27.6747L18.6249 28.1953L18.6295 28.2028L18.6342 28.2103L19.4787 27.6747ZM22 30.196L21.4453 31.0281L21.4518 31.0324L21.4583 31.0366L22 30.196ZM25.6932 32.0071L25.3438 32.9441L25.3508 32.9467L25.3579 32.9492L25.6932 32.0071ZM30.1676 33.2855L30.4002 32.3129L30.3931 32.3112L30.3861 32.3097L30.1676 33.2855ZM36.7017 34.848L36.4691 35.8206L36.4762 35.8223L36.4832 35.8239L36.7017 34.848ZM45.4375 37.6889L45.0298 38.6021L45.0298 38.6021L45.4375 37.6889ZM52.3267 42.0568L52.9916 41.3099L52.9916 41.3099L52.3267 42.0568ZM56.8366 48.1648L55.9263 48.5786L55.9298 48.5862L56.8366 48.1648ZM58.5057 56.2259L59.5058 56.2312L59.5057 56.218L58.5057 56.2259ZM55.0966 67.8026L54.2729 67.2355L54.272 67.2368L55.0966 67.8026ZM45.4375 75.3665L45.8277 76.2872L45.8302 76.2862L45.4375 75.3665ZM14.9332 75.331L14.5497 76.2545L14.5515 76.2552L14.9332 75.331ZM4.77699 67.3409L3.95004 67.9032L3.9544 67.9095L4.77699 67.3409ZM0.977273 54.1662V53.1662H-0.0456077L-0.0224715 54.1888L0.977273 54.1662ZM15.8565 54.1662L16.8542 54.0984L16.7909 53.1662H15.8565V54.1662ZM17.9517 60.2741L17.1531 60.876L17.158 60.8825L17.163 60.8889L17.9517 60.2741ZM22.9588 63.9318L22.5892 64.8611L22.6019 64.866L22.9588 63.9318ZM36.8793 64.0028L36.5157 63.0713L36.5118 63.0728L36.8793 64.0028ZM41.3892 60.8423L42.1741 61.462L42.1741 61.462L41.3892 60.8423ZM41.5312 52.071L40.7697 52.7192L40.7777 52.7284L41.5312 52.071ZM37.3409 49.2301L36.947 50.1493L36.9513 50.1511L37.3409 49.2301ZM30.6293 47.0994L30.3857 48.0694L30.3949 48.0716L30.6293 47.0994ZM22.7102 45.1108L22.9538 44.1409L22.9466 44.1391L22.7102 45.1108ZM8.18608 38.1151L7.51987 38.8608L7.51987 38.8608L8.18608 38.1151ZM2.89489 25.2955L3.89492 25.2999L3.89487 25.2901L2.89489 25.2955ZM6.41051 13.7543L5.60151 13.1664L5.59876 13.1703L6.41051 13.7543ZM44.5852 6.04829L44.1682 6.95719L44.1702 6.95811L44.5852 6.04829ZM54.0312 13.7543L53.2057 14.3185L53.2057 14.3185L54.0312 13.7543ZM57.5114 25.1889V26.1889H58.5279L58.5112 25.1725L57.5114 25.1889ZM43.7693 25.0902C43.4596 21.9679 42.1106 19.4755 39.7094 17.7075L38.5236 19.3181C40.4311 20.7225 41.5205 22.6808 41.779 25.2876L43.7693 25.0902ZM39.7094 17.7075C37.3287 15.9547 34.1723 15.1335 30.3452 15.1335V17.1335C33.9045 17.1335 36.5955 17.8985 38.5236 19.3181L39.7094 17.7075ZM30.3452 15.1335C27.7475 15.1335 25.491 15.5003 23.6085 16.2739L24.3688 18.1238C25.9427 17.477 27.9239 17.1335 30.3452 17.1335V15.1335ZM23.6194 16.2695C21.7559 17.0098 20.2662 18.0688 19.2114 19.4753L20.8114 20.6753C21.6031 19.6197 22.765 18.761 24.3578 18.1282L23.6194 16.2695ZM19.204 19.4853C18.1759 20.8921 17.6619 22.4966 17.6619 24.2656H19.6619C19.6619 22.9096 20.0476 21.7206 20.8188 20.6653L19.204 19.4853ZM17.6626 24.2293C17.6092 25.6978 17.9167 27.0338 18.6249 28.1953L20.3325 27.1541C19.857 26.3743 19.62 25.4376 19.6613 24.302L17.6626 24.2293ZM18.6342 28.2103C19.3327 29.3117 20.277 30.2492 21.4453 31.0281L22.5547 29.364C21.5923 28.7224 20.8558 27.979 20.3232 27.1392L18.6342 28.2103ZM21.4583 31.0366C22.5936 31.7682 23.8911 32.4024 25.3438 32.9441L26.0426 31.0701C24.7017 30.5701 23.5371 29.9969 22.5417 29.3555L21.4583 31.0366ZM25.3579 32.9492C26.7963 33.4612 28.3271 33.8982 29.9491 34.2614L30.3861 32.3097C28.8358 31.9626 27.3836 31.5473 26.0285 31.065L25.3579 32.9492ZM29.935 34.2581L36.4691 35.8206L36.9343 33.8754L30.4002 32.3129L29.935 34.2581ZM36.4832 35.8239C39.5982 36.5212 42.4459 37.4485 45.0298 38.6021L45.8452 36.7758C43.1261 35.5619 40.1499 34.5952 36.9202 33.8722L36.4832 35.8239ZM45.0298 38.6021C47.5984 39.7487 49.8056 41.1513 51.6618 42.8037L52.9916 41.3099C50.9652 39.5059 48.5796 37.9965 45.8452 36.7758L45.0298 38.6021ZM51.6618 42.8037C53.5 44.4401 54.9192 46.363 55.9263 48.5786L57.747 47.751C56.6234 45.279 55.036 43.1299 52.9916 41.3099L51.6618 42.8037ZM55.9298 48.5862C56.949 50.7798 57.483 53.3219 57.5057 56.2337L59.5057 56.218C59.4811 53.0692 58.9023 50.2372 57.7435 47.7434L55.9298 48.5862ZM57.5057 56.2205C57.483 60.496 56.3945 64.1536 54.2729 67.2355L55.9203 68.3696C58.2968 64.9175 59.4811 60.8572 59.5057 56.2312L57.5057 56.2205ZM54.272 67.2368C52.1708 70.2992 49.1135 72.7096 45.0448 74.4468L45.8302 76.2862C50.1895 74.4249 53.5716 71.7927 55.9212 68.3683L54.272 67.2368ZM45.0474 74.4457C41.0115 76.1558 36.0971 77.0298 30.2741 77.0298V79.0298C36.2883 79.0298 41.4828 78.1283 45.8276 76.2872L45.0474 74.4457ZM30.2741 77.0298C24.5028 77.0298 19.5242 76.1453 15.315 74.4067L14.5515 76.2552C19.0544 78.1151 24.3031 79.0298 30.2741 79.0298V77.0298ZM15.3168 74.4074C11.1445 72.6747 7.9186 70.127 5.59958 66.7723L3.9544 67.9095C6.51227 71.6098 10.0572 74.3888 14.5497 76.2545L15.3168 74.4074ZM5.60392 66.7786C3.31921 63.4187 2.09199 59.2252 1.97702 54.1436L-0.0224715 54.1888C0.0993014 59.5712 1.40522 64.1608 3.95006 67.9032L5.60392 66.7786ZM0.977273 55.1662H15.8565V53.1662H0.977273V55.1662ZM14.8588 54.234C15.0351 56.8278 15.7842 59.0595 17.1531 60.876L18.7503 59.6723C17.6571 58.2217 17.0094 56.3815 16.8542 54.0984L14.8588 54.234ZM17.163 60.8889C18.5376 62.6525 20.3575 63.9734 22.5892 64.861L23.3284 63.0026C21.3935 62.2331 19.8753 61.1155 18.7404 59.6594L17.163 60.8889ZM22.6019 64.866C24.841 65.7213 27.3441 66.1392 30.0966 66.1392V64.1392C27.5461 64.1392 25.2906 63.7521 23.3157 62.9977L22.6019 64.866ZM30.0966 66.1392C32.7948 66.1392 35.1858 65.7471 37.2467 64.9329L36.5118 63.0728C34.7375 63.7738 32.6067 64.1392 30.0966 64.1392V66.1392ZM37.2428 64.9344C39.3147 64.1259 40.9773 62.9779 42.1741 61.462L40.6043 60.2227C39.6704 61.4056 38.3264 62.3646 36.5157 63.0713L37.2428 64.9344ZM42.1741 61.462C43.3816 59.9325 43.9872 58.1625 43.9872 56.1903H41.9872C41.9872 57.722 41.5275 59.0533 40.6043 60.2227L42.1741 61.462ZM43.9872 56.1903C43.9872 54.3427 43.4316 52.7283 42.2848 51.4137L40.7777 52.7284C41.5722 53.6392 41.9872 54.7709 41.9872 56.1903H43.9872ZM42.2928 51.4229C41.2144 50.1558 39.6701 49.1297 37.7305 48.3091L36.9513 50.1511C38.7049 50.893 39.9542 51.7609 40.7697 52.7191L42.2928 51.4229ZM37.7348 48.311C35.8452 47.5011 33.551 46.7751 30.8636 46.1273L30.3949 48.0716C33.0105 48.7021 35.1908 49.3966 36.947 50.1493L37.7348 48.311ZM30.8728 46.1295L22.9538 44.1409L22.4667 46.0807L30.3857 48.0693L30.8728 46.1295ZM22.9466 44.1391C16.9246 42.6743 12.2475 40.4024 8.85229 37.3693L7.51987 38.8608C11.2269 42.1724 16.2326 44.5643 22.4739 46.0825L22.9466 44.1391ZM8.85229 37.3693C5.54343 34.4134 3.87228 30.4286 3.89488 25.2999L1.8949 25.291C1.87014 30.9104 3.72646 35.472 7.51987 38.8608L8.85229 37.3693ZM3.89487 25.2901C3.87223 21.0788 4.98909 17.4424 7.22227 14.3383L5.59876 13.1703C3.09708 16.6476 1.87019 20.7052 1.8949 25.3008L3.89487 25.2901ZM7.2195 14.3421C9.49504 11.2104 12.6268 8.74656 16.6523 6.96253L15.842 5.13405C11.5341 7.04321 8.10818 9.71669 5.60152 13.1664L7.2195 14.3421ZM16.6523 6.96253C20.6722 5.18099 25.2656 4.27841 30.4517 4.27841V2.27841C25.0317 2.27841 20.1554 3.22241 15.842 5.13405L16.6523 6.96253ZM30.4517 4.27841C35.7364 4.27841 40.2998 5.18229 44.1682 6.95719L45.0023 5.1394C40.8214 3.22112 35.9625 2.27841 30.4517 2.27841V4.27841ZM44.1702 6.95811C48.0725 8.73812 51.0711 11.1953 53.2057 14.3185L54.8568 13.19C52.4933 9.73182 49.1945 7.05166 45.0002 5.13847L44.1702 6.95811ZM53.2057 14.3185C55.3346 17.4335 56.4434 21.0509 56.5115 25.2053L58.5112 25.1725C58.4373 20.6622 57.226 16.6564 54.8568 13.19L53.2057 14.3185ZM57.5114 24.1889H42.7741V26.1889H57.5114V24.1889ZM103.543 53.7756L102.543 53.7756L102.543 53.7853L103.543 53.7756ZM103.543 22.4545V21.4545H102.543V22.4545H103.543ZM118.671 22.4545H119.671V21.4545H118.671V22.4545ZM118.671 77V78H119.671V77H118.671ZM104.147 77H103.147V78H104.147V77ZM104.147 67.0923H105.147V66.0923H104.147V67.0923ZM103.578 67.0923V66.0923H102.892L102.645 66.7329L103.578 67.0923ZM97.435 74.7983L96.874 73.9705L96.8708 73.9727L97.435 74.7983ZM77.4066 75.2244L77.92 74.3663L77.92 74.3663L77.4066 75.2244ZM70.908 68.1577L70.015 68.6077L70.0178 68.6131L70.908 68.1577ZM68.5643 57.1847L67.5643 57.1847L67.5643 57.1902L68.5643 57.1847ZM68.5643 22.4545V21.4545H67.5643V22.4545H68.5643ZM83.6921 22.4545H84.6921V21.4545H83.6921V22.4545ZM83.6921 54.4858L82.6921 54.4858L82.6921 54.4931L83.6921 54.4858ZM86.2844 62.1207L87.0235 61.4471L87.0235 61.4471L86.2844 62.1207ZM98.2518 63.6832L98.7148 64.5696L98.7251 64.5641L98.2518 63.6832ZM102.087 59.919L101.229 59.4045L101.224 59.4136L102.087 59.919ZM104.543 53.7756V22.4545H102.543V53.7756H104.543ZM103.543 23.4545H118.671V21.4545H103.543V23.4545ZM117.671 22.4545V77H119.671V22.4545H117.671ZM118.671 76H104.147V78H118.671V76ZM105.147 77V67.0923H103.147V77H105.147ZM104.147 66.0923H103.578V68.0923H104.147V66.0923ZM102.645 66.7329C101.488 69.7364 99.5715 72.1424 96.874 73.9705L97.996 75.6261C101.028 73.5716 103.206 70.8403 104.512 67.4518L102.645 66.7329ZM96.8708 73.9727C94.2257 75.7801 90.9636 76.7102 87.0302 76.7102V78.7102C91.2881 78.7102 94.9625 77.699 97.9992 75.6239L96.8708 73.9727ZM87.0302 76.7102C83.5412 76.7102 80.5154 75.9191 77.92 74.3663L76.8932 76.0826C79.8376 77.8442 83.2275 78.7102 87.0302 78.7102V76.7102ZM77.92 74.3663C75.3212 72.8115 73.281 70.6002 71.7983 67.7022L70.0178 68.6131C71.6601 71.8231 73.9522 74.323 76.8932 76.0826L77.92 74.3663ZM71.8011 67.7077C70.3467 64.8213 69.5873 61.3232 69.5643 57.1791L67.5643 57.1902C67.5886 61.5688 68.3917 65.386 70.015 68.6077L71.8011 67.7077ZM69.5643 57.1847V22.4545H67.5643V57.1847H69.5643ZM68.5643 23.4545H83.6921V21.4545H68.5643V23.4545ZM82.6921 22.4545V54.4858H84.6921V22.4545H82.6921ZM82.6921 54.4931C82.7171 57.8901 83.6332 60.6963 85.5454 62.7943L87.0235 61.4471C85.5266 59.8047 84.7145 57.5209 84.6921 54.4784L82.6921 54.4931ZM85.5454 62.7943C87.4654 64.9011 90.0333 65.9261 93.1381 65.9261V63.9261C90.5138 63.9261 88.5126 63.0809 87.0235 61.4471L85.5454 62.7943ZM93.1381 65.9261C95.1192 65.9261 96.983 65.4743 98.7148 64.5696L97.7888 62.7969C96.3482 63.5494 94.8029 63.9261 93.1381 63.9261V65.9261ZM98.7251 64.5641C100.484 63.619 101.893 62.2292 102.95 60.4244L101.224 59.4136C100.34 60.9232 99.1919 62.0429 97.7785 62.8023L98.7251 64.5641ZM102.944 60.4335C104.056 58.5815 104.568 56.341 104.543 53.7659L102.543 53.7853C102.565 56.087 102.107 57.9421 101.23 59.4045L102.944 60.4335ZM130.771 97.4545H129.771V98.4545H130.771V97.4545ZM130.771 22.4545V21.4545H129.771V22.4545H130.771ZM145.686 22.4545H146.686V21.4545H145.686V22.4545ZM145.686 31.6165H144.686V32.6165H145.686V31.6165ZM146.361 31.6165V32.6165H147.006L147.272 32.0281L146.361 31.6165ZM149.237 27.142L148.468 26.503L148.467 26.5042L149.237 27.142ZM154.209 23.3068L154.656 24.2013L154.66 24.1992L154.209 23.3068ZM172.888 24.8693L172.361 25.7193L172.365 25.722L172.888 24.8693ZM180.949 34.2088L180.048 34.6437L180.049 34.6457L180.949 34.2088ZM181.02 65.2102L180.114 64.7857L180.113 64.7879L181.02 65.2102ZM173.065 74.6918L173.603 75.5347L173.605 75.5337L173.065 74.6918ZM154.351 76.4318L153.921 77.3345L153.925 77.3364L154.351 76.4318ZM149.344 72.7741L148.59 73.4318L148.596 73.4378L149.344 72.7741ZM146.361 68.2642L147.272 67.8515L147.006 67.2642H146.361V68.2642ZM145.899 68.2642V67.2642H144.899V68.2642H145.899ZM145.899 97.4545V98.4545H146.899V97.4545H145.899ZM150.835 63.8608L150.215 64.6449L150.221 64.6501L150.835 63.8608ZM163.3 63.8253L163.92 64.6094L163.927 64.604L163.3 63.8253ZM167.17 58.1435L166.232 57.7973L166.23 57.8025L167.17 58.1435ZM167.206 41.4176L168.145 41.0736L168.145 41.0736L167.206 41.4176ZM163.335 35.8068L163.956 35.0228L163.956 35.0228L163.335 35.8068ZM150.8 35.7358L150.193 34.9411L150.187 34.9452L150.8 35.7358ZM146.929 41.2756L145.993 40.9234L145.993 40.9234L146.929 41.2756ZM131.771 97.4545V22.4545H129.771V97.4545H131.771ZM130.771 23.4545H145.686V21.4545H130.771V23.4545ZM144.686 22.4545V31.6165H146.686V22.4545H144.686ZM145.686 32.6165H146.361V30.6165H145.686V32.6165ZM147.272 32.0281C147.891 30.6573 148.798 29.2408 150.007 27.7799L148.467 26.5042C147.167 28.0736 146.156 29.6401 145.449 31.2049L147.272 32.0281ZM150.006 27.7811C151.185 26.3625 152.727 25.1658 154.656 24.2012L153.762 22.4124C151.619 23.4838 149.846 24.844 148.468 26.503L150.006 27.7811ZM154.66 24.1992C156.542 23.2474 158.933 22.7443 161.879 22.7443V20.7443C158.717 20.7443 155.995 21.2829 153.757 22.4145L154.66 24.1992ZM161.879 22.7443C165.672 22.7443 169.158 23.7346 172.361 25.7193L173.415 24.0193C169.894 21.8373 166.042 20.7443 161.879 20.7443V22.7443ZM172.365 25.722C175.537 27.6652 178.105 30.6191 180.048 34.6437L181.849 33.7739C179.768 29.4651 176.962 26.1928 173.41 24.0166L172.365 25.722ZM180.049 34.6457C181.976 38.6129 182.967 43.6484 182.967 49.7983H184.967C184.967 43.4482 183.946 38.0906 181.848 33.7719L180.049 34.6457ZM182.967 49.7983C182.967 55.78 182.001 60.7631 180.114 64.7857L181.925 65.6348C183.969 61.2767 184.967 55.9852 184.967 49.7983H182.967ZM180.113 64.7879C178.24 68.8093 175.705 71.8125 172.526 73.8498L173.605 75.5337C177.149 73.2623 179.917 69.9445 181.926 65.6325L180.113 64.7879ZM172.527 73.8488C169.358 75.8721 165.805 76.8878 161.844 76.8878V78.8878C166.168 78.8878 170.097 77.7728 173.603 75.5347L172.527 73.8488ZM161.844 76.8878C159.014 76.8878 156.671 76.4196 154.777 75.5272L153.925 77.3364C156.15 78.3853 158.802 78.8878 161.844 78.8878V76.8878ZM154.781 75.5292C152.848 74.6076 151.293 73.4643 150.092 72.1105L148.596 73.4378C149.999 75.0196 151.782 76.3148 153.921 77.3345L154.781 75.5292ZM150.097 72.1165C148.847 70.685 147.911 69.2627 147.272 67.8515L145.45 68.6769C146.184 70.296 147.236 71.8803 148.59 73.4318L150.097 72.1165ZM146.361 67.2642H145.899V69.2642H146.361V67.2642ZM144.899 68.2642V97.4545H146.899V68.2642H144.899ZM145.899 96.4545H130.771V98.4545H145.899V96.4545ZM144.58 49.7273C144.58 53.0603 145.041 56.0124 145.992 58.5636L147.866 57.8654C147.017 55.587 146.58 52.881 146.58 49.7273H144.58ZM145.992 58.5636C146.943 61.1175 148.342 63.1626 150.215 64.6448L151.456 63.0767C149.919 61.8602 148.714 60.141 147.866 57.8654L145.992 58.5636ZM150.221 64.6501C152.124 66.1299 154.419 66.8494 157.05 66.8494V64.8494C154.803 64.8494 152.956 64.2432 151.449 63.0714L150.221 64.6501ZM157.05 66.8494C159.706 66.8494 162.016 66.117 163.92 64.6093L162.679 63.0412C161.174 64.2325 159.318 64.8494 157.05 64.8494V66.8494ZM163.927 64.604C165.797 63.0977 167.183 61.0408 168.111 58.4845L166.23 57.8025C165.406 60.0757 164.212 61.8066 162.672 63.0465L163.927 64.604ZM168.109 58.4896C169.057 55.9189 169.52 52.9925 169.52 49.7273H167.52C167.52 52.8067 167.083 55.4911 166.232 57.7973L168.109 58.4896ZM169.52 49.7273C169.52 46.488 169.07 43.5975 168.145 41.0736L166.267 41.7616C167.094 44.0199 167.52 46.6692 167.52 49.7273H169.52ZM168.145 41.0736C167.217 38.5394 165.828 36.5051 163.956 35.0228L162.715 36.5909C164.251 37.8074 165.443 39.5136 166.267 41.7616L168.145 41.0736ZM163.956 35.0228C162.05 33.5138 159.727 32.7827 157.05 32.7827V34.7827C159.344 34.7827 161.212 35.401 162.715 36.5909L163.956 35.0228ZM157.05 32.7827C154.402 32.7827 152.097 33.4867 150.193 34.9411L151.407 36.5305C152.912 35.3808 154.773 34.7827 157.05 34.7827V32.7827ZM150.187 34.9452C148.333 36.3817 146.945 38.3942 145.993 40.9234L147.865 41.6277C148.713 39.3747 149.905 37.6941 151.412 36.5263L150.187 34.9452ZM145.993 40.9234C145.041 43.4529 144.58 46.3946 144.58 49.7273H146.58C146.58 46.5732 147.017 43.8805 147.865 41.6277L145.993 40.9234ZM204.422 74.6562L203.926 75.5248L203.932 75.5282L204.422 74.6562ZM195.118 64.9261L194.23 65.3853L194.231 65.3873L195.118 64.9261ZM195.118 35.2031L194.228 34.746L194.228 34.746L195.118 35.2031ZM204.315 25.2955L203.804 24.4362L203.802 24.4375L204.315 25.2955ZM228.357 23.4844L228.006 24.421L228.015 24.4242L228.357 23.4844ZM236.524 28.6335L235.821 29.3443L235.824 29.3478L236.524 28.6335ZM241.993 37.2983L241.056 37.6487L241.057 37.6508L241.993 37.2983ZM243.946 53.598V54.598H244.946V53.598H243.946ZM197.888 53.598H196.888V54.598H197.888V53.598ZM197.888 44.223V43.223H196.888V44.223H197.888ZM229.706 44.223V45.223H230.706V44.223H229.706ZM228.286 38.4347L227.414 38.9255L227.414 38.9255L228.286 38.4347ZM224.344 34.4929L223.838 35.3558L223.846 35.36L223.853 35.3641L224.344 34.4929ZM212.447 34.6349L212.959 35.4945L212.962 35.4924L212.447 34.6349ZM208.328 38.8608L209.198 39.3544L209.201 39.3494L208.328 38.8608ZM206.801 44.7202L205.801 44.7092V44.7202H206.801ZM208.293 60.6293L207.4 61.0808L207.405 61.0893L208.293 60.6293ZM223.776 66.0625L223.455 65.1154L223.455 65.1154L223.776 66.0625ZM227.362 63.9318L226.673 63.2077L226.673 63.2077L227.362 63.9318ZM229.635 60.4517L229.701 59.4539L228.962 59.4051L228.7 60.0971L229.635 60.4517ZM243.626 61.375L244.605 61.5817L244.843 60.4531L243.692 60.3772L243.626 61.375ZM239.259 70.1818L238.507 69.5223L238.506 69.5228L239.259 70.1818ZM230.807 76.0057L231.178 76.9342L231.181 76.9328L230.807 76.0057ZM218.911 77.0653C213.436 77.0653 208.782 75.9572 204.911 73.7843L203.932 75.5282C208.158 77.9008 213.164 79.0653 218.911 79.0653V77.0653ZM204.917 73.7877C201.063 71.5885 198.096 68.4881 196.005 64.4649L194.231 65.3873C196.496 69.7448 199.731 73.1312 203.926 75.5248L204.917 73.7877ZM196.006 64.467C193.916 60.422 192.851 55.6025 192.851 49.9759H190.851C190.851 55.8549 191.964 61.0022 194.23 65.3853L196.006 64.467ZM192.851 49.9759C192.851 44.4959 193.914 39.7334 196.007 35.6602L194.228 34.746C191.966 39.1482 190.851 44.2342 190.851 49.9759H192.851ZM196.007 35.6602C198.103 31.5827 201.041 28.4215 204.829 26.1534L203.802 24.4375C199.682 26.9042 196.489 30.3482 194.228 34.746L196.007 35.6602ZM204.827 26.1547C208.627 23.893 213.108 22.7443 218.307 22.7443V20.7443C212.805 20.7443 207.959 21.9631 203.804 24.4362L204.827 26.1547ZM218.307 22.7443C221.796 22.7443 225.026 23.3064 228.006 24.421L228.707 22.5478C225.484 21.3423 222.015 20.7443 218.307 20.7443V22.7443ZM228.015 24.4242C231.007 25.5121 233.605 27.1514 235.821 29.3442L237.228 27.9228C234.803 25.5229 231.956 23.7293 228.698 22.5446L228.015 24.4242ZM235.824 29.3478C238.05 31.5289 239.799 34.2876 241.056 37.6487L242.929 36.9479C241.583 33.3488 239.685 30.3309 237.224 27.9192L235.824 29.3478ZM241.057 37.6508C242.307 40.9698 242.946 44.8938 242.946 49.4432H244.946C244.946 44.7122 244.283 40.5396 242.929 36.9458L241.057 37.6508ZM242.946 49.4432V53.598H244.946V49.4432H242.946ZM243.946 52.598H197.888V54.598H243.946V52.598ZM198.888 53.598V44.223H196.888V53.598H198.888ZM197.888 45.223H229.706V43.223H197.888V45.223ZM230.706 44.223C230.706 41.8956 230.199 39.793 229.157 37.9438L227.414 38.9255C228.266 40.4381 228.706 42.1944 228.706 44.223H230.706ZM229.157 37.9438C228.12 36.1038 226.675 34.6583 224.835 33.6216L223.853 35.3641C225.375 36.2214 226.557 37.4038 227.414 38.9255L229.157 37.9438ZM224.849 33.63C223.017 32.5571 220.908 32.0369 218.555 32.0369V34.0369C220.606 34.0369 222.356 34.4874 223.838 35.3558L224.849 33.63ZM218.555 32.0369C216.098 32.0369 213.88 32.6089 211.933 33.7774L212.962 35.4924C214.566 34.5303 216.42 34.0369 218.555 34.0369V32.0369ZM211.936 33.7754C210.034 34.9067 208.536 36.4431 207.456 38.3722L209.201 39.3494C210.109 37.7273 211.357 36.4465 212.959 35.4945L211.936 33.7754ZM207.458 38.3672C206.375 40.2765 205.827 42.3977 205.801 44.7092L207.801 44.7312C207.823 42.734 208.293 40.9488 209.198 39.3544L207.458 38.3672ZM205.801 44.7202V53.6335H207.801V44.7202H205.801ZM205.801 53.6335C205.801 56.4544 206.321 58.9478 207.4 61.0808L209.185 60.1778C208.276 58.3808 207.801 56.2103 207.801 53.6335H205.801ZM207.405 61.0893C208.507 63.2171 210.071 64.8763 212.09 66.0409L213.089 64.3085C211.415 63.3425 210.114 61.9713 209.181 60.1693L207.405 61.0893ZM212.09 66.0409C214.115 67.2091 216.484 67.7727 219.159 67.7727V65.7727C216.768 65.7727 214.758 65.271 213.089 64.3085L212.09 66.0409ZM219.159 67.7727C220.934 67.7727 222.583 67.5226 224.097 67.0096L223.455 65.1154C222.174 65.5493 220.746 65.7727 219.159 65.7727V67.7727ZM224.097 67.0096C225.621 66.4929 226.945 65.7104 228.052 64.656L226.673 63.2077C225.791 64.0472 224.724 64.6851 223.455 65.1154L224.097 67.0096ZM228.052 64.656C229.162 63.5987 230 62.3095 230.57 60.8064L228.7 60.0971C228.228 61.3401 227.551 62.371 226.673 63.2077L228.052 64.656ZM229.569 61.4495L243.561 62.3728L243.692 60.3772L229.701 59.4539L229.569 61.4495ZM242.648 61.1683C241.972 64.3673 240.592 67.1457 238.507 69.5223L240.01 70.8413C242.328 68.199 243.86 65.1062 244.605 61.5817L242.648 61.1683ZM238.506 69.5228C236.444 71.8766 233.762 73.7328 230.432 75.0785L231.181 76.9328C234.764 75.485 237.717 73.4586 240.011 70.8408L238.506 69.5228ZM230.435 75.0772C227.143 76.394 223.308 77.0653 218.911 77.0653V79.0653C223.509 79.0653 227.605 78.3635 231.178 76.9342L230.435 75.0772ZM253.818 77H252.818V78H253.818V77ZM253.818 22.4545V21.4545H252.818V22.4545H253.818ZM268.484 22.4545H269.484V21.4545H268.484V22.4545ZM268.484 31.9716H267.484V32.9716H268.484V31.9716ZM269.053 31.9716V32.9716H269.801L270.012 32.2534L269.053 31.9716ZM274.06 24.3011L274.653 25.106L274.658 25.1021L274.06 24.3011ZM284.607 21.8153L284.714 20.8211L284.714 20.8211L284.607 21.8153ZM286.915 22.206H287.915V21.4252L287.157 21.2358L286.915 22.206ZM286.915 35.6293L286.627 36.5871L287.915 36.9733V35.6293H286.915ZM274.557 36.2685L275.037 37.1455L275.041 37.1432L274.557 36.2685ZM270.438 40.2457L269.579 39.733L269.574 39.7419L270.438 40.2457ZM268.946 77V78H269.946V77H268.946ZM254.818 77V22.4545H252.818V77H254.818ZM253.818 23.4545H268.484V21.4545H253.818V23.4545ZM267.484 22.4545V31.9716H269.484V22.4545H267.484ZM268.484 32.9716H269.053V30.9716H268.484V32.9716ZM270.012 32.2534C270.958 29.0321 272.52 26.6789 274.653 25.106L273.466 23.4963C270.912 25.3798 269.136 28.1403 268.093 31.6898L270.012 32.2534ZM274.658 25.1021C276.821 23.4853 279.308 22.6733 282.156 22.6733V20.6733C278.897 20.6733 275.985 21.6131 273.461 23.5002L274.658 25.1021ZM282.156 22.6733C282.873 22.6733 283.653 22.7181 284.499 22.8095L284.714 20.8211C283.808 20.7232 282.955 20.6733 282.156 20.6733V22.6733ZM284.499 22.8095C285.342 22.9007 286.064 23.0241 286.672 23.1761L287.157 21.2358C286.439 21.0564 285.623 20.9194 284.714 20.8211L284.499 22.8095ZM285.915 22.206V35.6293H287.915V22.206H285.915ZM287.202 34.6714C286.417 34.436 285.375 34.2383 284.098 34.0697L283.836 36.0525C285.07 36.2153 285.992 36.3964 286.627 36.5871L287.202 34.6714ZM284.098 34.0697C282.809 33.8994 281.616 33.8125 280.523 33.8125V35.8125C281.512 35.8125 282.616 35.8913 283.836 36.0525L284.098 34.0697ZM280.523 33.8125C278.147 33.8125 275.988 34.3321 274.072 35.3938L275.041 37.1432C276.629 36.2636 278.448 35.8125 280.523 35.8125V33.8125ZM274.076 35.3915C272.191 36.4247 270.688 37.8767 269.579 39.733L271.296 40.7585C272.223 39.2056 273.467 38.0062 275.037 37.1454L274.076 35.3915ZM269.574 39.7419C268.479 41.6181 267.946 43.7613 267.946 46.1406H269.946C269.946 44.0692 270.407 42.2824 271.301 40.7496L269.574 39.7419ZM267.946 46.1406V77H269.946V46.1406H267.946ZM268.946 76H253.818V78H268.946V76ZM357.618 25.1889L356.623 25.2876L356.712 26.1889H357.618V25.1889ZM338.832 17.1989L339.202 18.1283L339.213 18.1238L338.832 17.1989ZM334.855 20.0753L334.055 19.4752L334.048 19.4853L334.855 20.0753ZM333.506 24.2656L334.505 24.302L334.506 24.2838V24.2656H333.506ZM334.322 27.6747L333.469 28.1953L333.473 28.2028L333.478 28.2103L334.322 27.6747ZM336.844 30.196L336.289 31.0281L336.296 31.0324L336.302 31.0366L336.844 30.196ZM340.537 32.0071L340.188 32.9441L340.195 32.9467L340.202 32.9492L340.537 32.0071ZM345.011 33.2855L345.244 32.3129L345.237 32.3112L345.23 32.3097L345.011 33.2855ZM351.545 34.848L351.313 35.8206L351.32 35.8223L351.327 35.8239L351.545 34.848ZM360.281 37.6889L359.874 38.6021L359.874 38.6021L360.281 37.6889ZM367.17 42.0568L367.835 41.3099L367.835 41.3099L367.17 42.0568ZM371.68 48.1648L370.77 48.5786L370.774 48.5862L371.68 48.1648ZM373.349 56.2259L374.35 56.2312L374.349 56.218L373.349 56.2259ZM369.94 67.8026L369.117 67.2355L369.116 67.2368L369.94 67.8026ZM360.281 75.3665L360.671 76.2872L360.674 76.2862L360.281 75.3665ZM329.777 75.331L329.393 76.2545L329.395 76.2552L329.777 75.331ZM319.621 67.3409L318.794 67.9032L318.798 67.9095L319.621 67.3409ZM315.821 54.1662V53.1662H314.798L314.821 54.1888L315.821 54.1662ZM330.7 54.1662L331.698 54.0984L331.635 53.1662H330.7V54.1662ZM332.795 60.2741L331.997 60.876L332.002 60.8825L332.007 60.8889L332.795 60.2741ZM337.803 63.9318L337.433 64.8611L337.446 64.866L337.803 63.9318ZM351.723 64.0028L351.359 63.0713L351.356 63.0728L351.723 64.0028ZM356.233 60.8423L357.018 61.462L357.018 61.462L356.233 60.8423ZM356.375 52.071L355.613 52.7192L355.621 52.7284L356.375 52.071ZM352.185 49.2301L351.791 50.1493L351.795 50.1511L352.185 49.2301ZM345.473 47.0994L345.229 48.0694L345.239 48.0716L345.473 47.0994ZM337.554 45.1108L337.798 44.1409L337.79 44.1391L337.554 45.1108ZM323.03 38.1151L322.364 38.8608L322.364 38.8608L323.03 38.1151ZM317.739 25.2955L318.739 25.2999L318.739 25.2901L317.739 25.2955ZM321.254 13.7543L320.445 13.1664L320.443 13.1703L321.254 13.7543ZM359.429 6.04829L359.012 6.95719L359.014 6.95811L359.429 6.04829ZM368.875 13.7543L368.049 14.3185L368.049 14.3185L368.875 13.7543ZM372.355 25.1889V26.1889H373.372L373.355 25.1725L372.355 25.1889ZM358.613 25.0902C358.303 21.9679 356.954 19.4755 354.553 17.7075L353.367 19.3181C355.275 20.7225 356.364 22.6808 356.623 25.2876L358.613 25.0902ZM354.553 17.7075C352.172 15.9547 349.016 15.1335 345.189 15.1335V17.1335C348.748 17.1335 351.439 17.8985 353.367 19.3181L354.553 17.7075ZM345.189 15.1335C342.591 15.1335 340.335 15.5003 338.452 16.2739L339.213 18.1238C340.786 17.477 342.768 17.1335 345.189 17.1335V15.1335ZM338.463 16.2695C336.6 17.0098 335.11 18.0688 334.055 19.4753L335.655 20.6753C336.447 19.6197 337.609 18.761 339.202 18.1282L338.463 16.2695ZM334.048 19.4853C333.02 20.8921 332.506 22.4966 332.506 24.2656H334.506C334.506 22.9096 334.891 21.7206 335.663 20.6653L334.048 19.4853ZM332.506 24.2293C332.453 25.6978 332.76 27.0338 333.469 28.1953L335.176 27.1541C334.701 26.3743 334.464 25.4376 334.505 24.302L332.506 24.2293ZM333.478 28.2103C334.176 29.3117 335.121 30.2492 336.289 31.0281L337.398 29.364C336.436 28.7224 335.7 27.979 335.167 27.1392L333.478 28.2103ZM336.302 31.0366C337.437 31.7682 338.735 32.4024 340.188 32.9441L340.886 31.0701C339.545 30.5701 338.381 29.9969 337.385 29.3555L336.302 31.0366ZM340.202 32.9492C341.64 33.4612 343.171 33.8982 344.793 34.2614L345.23 32.3097C343.68 31.9626 342.227 31.5473 340.872 31.065L340.202 32.9492ZM344.779 34.2581L351.313 35.8206L351.778 33.8754L345.244 32.3129L344.779 34.2581ZM351.327 35.8239C354.442 36.5212 357.29 37.4485 359.874 38.6021L360.689 36.7758C357.97 35.5619 354.994 34.5952 351.764 33.8722L351.327 35.8239ZM359.874 38.6021C362.442 39.7487 364.649 41.1513 366.506 42.8037L367.835 41.3099C365.809 39.5059 363.423 37.9965 360.689 36.7758L359.874 38.6021ZM366.506 42.8037C368.344 44.4401 369.763 46.363 370.77 48.5786L372.591 47.751C371.467 45.279 369.88 43.1299 367.835 41.3099L366.506 42.8037ZM370.774 48.5862C371.793 50.7798 372.327 53.3219 372.349 56.2337L374.349 56.218C374.325 53.0692 373.746 50.2372 372.587 47.7434L370.774 48.5862ZM372.349 56.2205C372.327 60.496 371.238 64.1536 369.117 67.2355L370.764 68.3696C373.141 64.9175 374.325 60.8572 374.349 56.2312L372.349 56.2205ZM369.116 67.2368C367.015 70.2992 363.957 72.7096 359.889 74.4468L360.674 76.2862C365.033 74.4249 368.415 71.7927 370.765 68.3683L369.116 67.2368ZM359.891 74.4457C355.855 76.1558 350.941 77.0298 345.118 77.0298V79.0298C351.132 79.0298 356.327 78.1283 360.671 76.2872L359.891 74.4457ZM345.118 77.0298C339.347 77.0298 334.368 76.1453 330.159 74.4067L329.395 76.2552C333.898 78.1151 339.147 79.0298 345.118 79.0298V77.0298ZM330.161 74.4074C325.988 72.6747 322.762 70.127 320.443 66.7723L318.798 67.9095C321.356 71.6098 324.901 74.3888 329.393 76.2545L330.161 74.4074ZM320.448 66.7786C318.163 63.4187 316.936 59.2252 316.821 54.1436L314.821 54.1888C314.943 59.5712 316.249 64.1608 318.794 67.9032L320.448 66.7786ZM315.821 55.1662H330.7V53.1662H315.821V55.1662ZM329.703 54.234C329.879 56.8278 330.628 59.0595 331.997 60.876L333.594 59.6723C332.501 58.2217 331.853 56.3815 331.698 54.0984L329.703 54.234ZM332.007 60.8889C333.381 62.6525 335.201 63.9734 337.433 64.861L338.172 63.0026C336.237 62.2331 334.719 61.1155 333.584 59.6594L332.007 60.8889ZM337.446 64.866C339.685 65.7213 342.188 66.1392 344.94 66.1392V64.1392C342.39 64.1392 340.134 63.7521 338.159 62.9977L337.446 64.866ZM344.94 66.1392C347.639 66.1392 350.03 65.7471 352.09 64.9329L351.356 63.0728C349.581 63.7738 347.45 64.1392 344.94 64.1392V66.1392ZM352.087 64.9344C354.158 64.1259 355.821 62.9779 357.018 61.462L355.448 60.2227C354.514 61.4056 353.17 62.3646 351.359 63.0713L352.087 64.9344ZM357.018 61.462C358.225 59.9325 358.831 58.1625 358.831 56.1903H356.831C356.831 57.722 356.371 59.0533 355.448 60.2227L357.018 61.462ZM358.831 56.1903C358.831 54.3427 358.275 52.7283 357.129 51.4137L355.621 52.7284C356.416 53.6392 356.831 54.7709 356.831 56.1903H358.831ZM357.137 51.4229C356.058 50.1558 354.514 49.1297 352.574 48.3091L351.795 50.1511C353.549 50.893 354.798 51.7609 355.613 52.7191L357.137 51.4229ZM352.579 48.311C350.689 47.5011 348.395 46.7751 345.707 46.1273L345.239 48.0716C347.854 48.7021 350.035 49.3966 351.791 50.1493L352.579 48.311ZM345.717 46.1295L337.798 44.1409L337.31 46.0807L345.229 48.0693L345.717 46.1295ZM337.79 44.1391C331.768 42.6743 327.091 40.4024 323.696 37.3693L322.364 38.8608C326.071 42.1724 331.076 44.5643 337.318 46.0825L337.79 44.1391ZM323.696 37.3693C320.387 34.4134 318.716 30.4286 318.739 25.2999L316.739 25.291C316.714 30.9104 318.57 35.472 322.364 38.8608L323.696 37.3693ZM318.739 25.2901C318.716 21.0788 319.833 17.4424 322.066 14.3383L320.443 13.1703C317.941 16.6476 316.714 20.7052 316.739 25.3008L318.739 25.2901ZM322.063 14.3421C324.339 11.2104 327.471 8.74656 331.496 6.96253L330.686 5.13405C326.378 7.04321 322.952 9.71669 320.445 13.1664L322.063 14.3421ZM331.496 6.96253C335.516 5.18099 340.109 4.27841 345.295 4.27841V2.27841C339.875 2.27841 334.999 3.22241 330.686 5.13405L331.496 6.96253ZM345.295 4.27841C350.58 4.27841 355.144 5.18229 359.012 6.95719L359.846 5.1394C355.665 3.22112 350.806 2.27841 345.295 2.27841V4.27841ZM359.014 6.95811C362.916 8.73812 365.915 11.1953 368.049 14.3185L369.701 13.19C367.337 9.73182 364.038 7.05166 359.844 5.13847L359.014 6.95811ZM368.049 14.3185C370.178 17.4335 371.287 21.0509 371.355 25.2053L373.355 25.1725C373.281 20.6622 372.07 16.6564 369.701 13.19L368.049 14.3185ZM372.355 24.1889H357.618V26.1889H372.355V24.1889ZM393.742 74.5497L393.233 75.4104L393.239 75.4139L393.742 74.5497ZM384.473 64.6776L383.584 65.1347L383.585 65.1367L384.473 64.6776ZM384.473 35.1676L385.362 35.6268L385.363 35.6247L384.473 35.1676ZM393.742 25.2955L394.247 26.1583L394.249 26.1574L393.742 25.2955ZM422.328 25.2955L421.819 26.1561L421.825 26.1596L422.328 25.2955ZM431.632 35.1676L430.743 35.6247L430.744 35.6268L431.632 35.1676ZM431.632 64.6776L432.521 65.1367L432.522 65.1347L431.632 64.6776ZM422.328 74.5497L422.834 75.4126L422.836 75.4117L422.328 74.5497ZM414.409 64.2159L415.055 64.9797L415.061 64.9744L414.409 64.2159ZM418.209 58.321L417.266 57.9887L417.263 57.9967L418.209 58.321ZM418.209 41.3466L417.263 41.6709L417.266 41.6789L418.209 41.3466ZM401.732 35.4517L401.091 34.6843L401.085 34.6887L401.732 35.4517ZM397.861 41.3466L396.918 41.0142L396.915 41.0223L397.861 41.3466ZM397.861 58.321L396.915 58.6454L396.918 58.6534L397.861 58.321ZM401.732 64.2159L401.085 64.9789L401.091 64.9837L401.097 64.9885L401.732 64.2159ZM408.053 77.0653C402.681 77.0653 398.091 75.9252 394.245 73.6856L393.239 75.4139C397.442 77.8618 402.393 79.0653 408.053 79.0653V77.0653ZM394.251 73.6891C390.415 71.4193 387.455 68.2693 385.362 64.2184L383.585 65.1367C385.847 69.5139 389.067 72.9453 393.233 75.4103L394.251 73.6891ZM385.363 64.2204C383.269 60.1467 382.206 55.3959 382.206 49.9403H380.206C380.206 55.659 381.322 60.7331 383.584 65.1347L385.363 64.2204ZM382.206 49.9403C382.206 44.4358 383.27 39.6745 385.362 35.6268L383.585 34.7085C381.321 39.0888 380.206 44.176 380.206 49.9403H382.206ZM385.363 35.6247C387.456 31.5511 390.415 28.4033 394.247 26.1583L393.236 24.4326C389.067 26.8751 385.846 30.3087 383.584 34.7105L385.363 35.6247ZM394.249 26.1574C398.094 23.8956 402.683 22.7443 408.053 22.7443V20.7443C402.391 20.7443 397.439 21.9605 393.235 24.4335L394.249 26.1574ZM408.053 22.7443C413.423 22.7443 417.999 23.8956 421.819 26.1561L422.838 24.4348C418.656 21.9604 413.715 20.7443 408.053 20.7443V22.7443ZM421.825 26.1596C425.681 28.405 428.65 31.5527 430.743 35.6247L432.522 34.7105C430.259 30.3072 427.025 26.8734 422.832 24.4313L421.825 26.1596ZM430.744 35.6268C432.836 39.6745 433.9 44.4358 433.9 49.9403H435.9C435.9 44.176 434.785 39.0888 432.521 34.7085L430.744 35.6268ZM433.9 49.9403C433.9 55.3959 432.837 60.1467 430.743 64.2204L432.522 65.1347C434.784 60.7331 435.9 55.659 435.9 49.9403H433.9ZM430.744 64.2184C428.651 68.2677 425.681 71.4176 421.821 73.6878L422.836 75.4117C427.025 72.947 430.258 69.5154 432.521 65.1367L430.744 64.2184ZM421.823 73.6869C418.002 75.9251 413.425 77.0653 408.053 77.0653V79.0653C413.713 79.0653 418.653 77.8618 422.834 75.4126L421.823 73.6869ZM408.124 67.3466C410.835 67.3466 413.168 66.5739 415.055 64.9797L413.764 63.4521C412.289 64.6988 410.432 65.3466 408.124 65.3466V67.3466ZM415.061 64.9744C416.9 63.3944 418.256 61.268 419.155 58.6453L417.263 57.9967C416.458 60.3456 415.28 62.1492 413.758 63.4574L415.061 64.9744ZM419.152 58.6534C420.073 56.0416 420.523 53.097 420.523 49.8338H418.523C418.523 52.9153 418.098 55.6289 417.266 57.9887L419.152 58.6534ZM420.523 49.8338C420.523 46.5706 420.073 43.626 419.152 41.0142L417.266 41.6789C418.098 44.0387 418.523 46.7523 418.523 49.8338H420.523ZM419.155 41.0223C418.256 38.3996 416.9 36.2732 415.061 34.6932L413.758 36.2102C415.28 37.5185 416.458 39.322 417.263 41.6709L419.155 41.0223ZM415.061 34.6932C413.175 33.0726 410.839 32.2855 408.124 32.2855V34.2855C410.428 34.2855 412.282 34.9426 413.758 36.2102L415.061 34.6932ZM408.124 32.2855C405.387 32.2855 403.021 33.0711 401.091 34.6843L402.373 36.2191C403.899 34.944 405.794 34.2855 408.124 34.2855V32.2855ZM401.085 34.6887C399.223 36.2667 397.842 38.3914 396.918 41.0142L398.804 41.6789C399.632 39.3302 400.832 37.525 402.378 36.2147L401.085 34.6887ZM396.915 41.0223C396.021 43.6315 395.583 46.5732 395.583 49.8338H397.583C397.583 46.7497 397.997 44.0333 398.807 41.6709L396.915 41.0223ZM395.583 49.8338C395.583 53.0944 396.021 56.0361 396.915 58.6453L398.807 57.9967C397.997 55.6344 397.583 52.9179 397.583 49.8338H395.583ZM396.918 58.6534C397.842 61.2762 399.223 63.401 401.085 64.9789L402.378 63.4529C400.832 62.1426 399.632 60.3374 398.804 57.9887L396.918 58.6534ZM401.097 64.9885C403.028 66.5753 405.392 67.3466 408.124 67.3466V65.3466C405.79 65.3466 403.893 64.6974 402.367 63.4434L401.097 64.9885ZM474.069 22.4545H475.069V21.4545H474.069V22.4545ZM474.069 33.8182V34.8182H475.069V33.8182H474.069ZM440.404 33.8182H439.404V34.8182H440.404V33.8182ZM440.404 22.4545V21.4545H439.404V22.4545H440.404ZM448.11 77H447.11V78H448.11V77ZM450.418 8.67613L449.56 8.16162L449.557 8.1674L450.418 8.67613ZM456.81 2.81676L456.375 1.9161L456.375 1.9161L456.81 2.81676ZM472.364 1.39631L472.182 2.37959L472.184 2.37998L472.364 1.39631ZM476.696 2.35511L477.669 2.58618L477.887 1.66836L476.984 1.39729L476.696 2.35511ZM473.998 13.7188L473.693 14.6712L474.721 15.0002L474.97 13.9498L473.998 13.7188ZM471.796 13.1861L471.605 14.1677L471.61 14.1686L471.796 13.1861ZM464.516 14.5L465.274 15.1523L465.281 15.1436L464.516 14.5ZM463.202 77V78H464.202V77H463.202ZM473.069 22.4545V33.8182H475.069V22.4545H473.069ZM474.069 32.8182H440.404V34.8182H474.069V32.8182ZM441.404 33.8182V22.4545H439.404V33.8182H441.404ZM440.404 23.4545H474.069V21.4545H440.404V23.4545ZM449.11 77V18.5128H447.11V77H449.11ZM449.11 18.5128C449.11 14.6845 449.855 11.5946 451.279 9.18486L449.557 8.1674C447.903 10.966 447.11 14.4338 447.11 18.5128H449.11ZM451.275 9.19063C452.739 6.75127 454.724 4.93356 457.245 3.71741L456.375 1.9161C453.498 3.30412 451.222 5.39266 449.56 8.16164L451.275 9.19063ZM457.245 3.71741C459.789 2.48962 462.703 1.86363 466.007 1.86363V-0.136369C462.446 -0.136369 459.228 0.539726 456.375 1.9161L457.245 3.71741ZM466.007 1.86363C468.278 1.86363 470.334 2.03745 472.182 2.37959L472.546 0.413025C470.558 0.0449311 468.378 -0.136369 466.007 -0.136369V1.86363ZM472.184 2.37998C474.117 2.73362 475.517 3.04532 476.409 3.31294L476.984 1.39729C475.982 1.09672 474.493 0.769219 472.544 0.412629L472.184 2.37998ZM475.723 2.12404L473.025 13.4877L474.97 13.9498L477.669 2.58618L475.723 2.12404ZM474.302 12.7663C473.659 12.5604 472.882 12.3739 471.982 12.2035L471.61 14.1686C472.461 14.3297 473.153 14.4983 473.693 14.6712L474.302 12.7663ZM471.987 12.2045C471.069 12.0261 470.129 11.9375 469.168 11.9375V13.9375C470.006 13.9375 470.818 14.0146 471.605 14.1677L471.987 12.2045ZM469.168 11.9375C466.831 11.9375 464.909 12.4783 463.751 13.8564L465.281 15.1436C465.874 14.4384 467.054 13.9375 469.168 13.9375V11.9375ZM463.758 13.8478C462.676 15.1053 462.202 16.8006 462.202 18.7969H464.202C464.202 17.0999 464.604 15.9307 465.274 15.1522L463.758 13.8478ZM462.202 18.7969V77H464.202V18.7969H462.202ZM463.202 76H448.11V78H463.202V76ZM512.323 22.4545H513.323V21.4545H512.323V22.4545ZM512.323 33.8182V34.8182H513.323V33.8182H512.323ZM479.475 33.8182H478.475V34.8182H479.475V33.8182ZM479.475 22.4545V21.4545H478.475V22.4545H479.475ZM486.933 9.38636V8.38636H485.933V9.38636H486.933ZM502.06 9.38636H503.06V8.38636H502.06V9.38636ZM502.7 63.5057L501.822 63.9846L501.828 63.9959L502.7 63.5057ZM504.475 65.1037L504.099 66.0302L504.109 66.0341L504.475 65.1037ZM509.305 65.3878L509.469 66.3742L509.485 66.3715L509.501 66.3684L509.305 65.3878ZM510.938 65.0682L511.917 64.8614L511.715 63.9052L510.754 64.0853L510.938 65.0682ZM513.317 76.3253L513.616 77.2798L514.484 77.0084L514.296 76.1185L513.317 76.3253ZM510.121 77.142L509.903 76.1663L509.895 76.168L509.887 76.17L510.121 77.142ZM505.114 77.7457L505.078 76.7464L505.075 76.7465L505.114 77.7457ZM495.526 76.2898L495.148 77.2155L495.151 77.2166L495.526 76.2898ZM489.17 71.1051L490.01 70.5622L490.01 70.5622L489.17 71.1051ZM486.933 62.2273L487.933 62.2339V62.2273H486.933ZM511.323 22.4545V33.8182H513.323V22.4545H511.323ZM512.323 32.8182H479.475V34.8182H512.323V32.8182ZM480.475 33.8182V22.4545H478.475V33.8182H480.475ZM479.475 23.4545H512.323V21.4545H479.475V23.4545ZM486.933 10.3864H502.06V8.38636H486.933V10.3864ZM501.06 9.38636V60.2386H503.06V9.38636H501.06ZM501.06 60.2386C501.06 61.7165 501.282 62.9958 501.822 63.9845L503.577 63.0268C503.265 62.4531 503.06 61.5543 503.06 60.2386H501.06ZM501.828 63.9959C502.358 64.9374 503.118 65.6316 504.099 66.0302L504.852 64.1772C504.317 63.9602 503.894 63.5891 503.571 63.0154L501.828 63.9959ZM504.109 66.0341C505.029 66.3965 506.056 66.5653 507.174 66.5653V64.5653C506.256 64.5653 505.484 64.4264 504.842 64.1733L504.109 66.0341ZM507.174 66.5653C507.94 66.5653 508.705 66.5015 509.469 66.3742L509.14 64.4014C508.484 64.5108 507.828 64.5653 507.174 64.5653V66.5653ZM509.501 66.3684C510.21 66.2266 510.75 66.121 511.123 66.0511L510.754 64.0853C510.369 64.1575 509.82 64.2649 509.109 64.4072L509.501 66.3684ZM509.96 65.275L512.339 76.5321L514.296 76.1185L511.917 64.8614L509.96 65.275ZM513.019 75.3708C512.3 75.5954 511.266 75.8607 509.903 76.1663L510.34 78.1178C511.723 77.8079 512.819 77.5286 513.616 77.2798L513.019 75.3708ZM509.887 76.17C508.599 76.4809 507 76.6769 505.078 76.7464L505.15 78.7451C507.158 78.6725 508.898 78.466 510.356 78.1141L509.887 76.17ZM505.075 76.7465C501.539 76.8843 498.49 76.4116 495.902 75.363L495.151 77.2166C498.055 78.3934 501.398 78.8913 505.153 78.745L505.075 76.7465ZM495.905 75.3641C493.361 74.3244 491.407 72.7246 490.01 70.5622L488.33 71.648C489.962 74.1731 492.247 76.0298 495.148 77.2154L495.905 75.3641ZM490.01 70.5622C488.626 68.4224 487.91 65.6681 487.933 62.2339L485.933 62.2206C485.908 65.936 486.683 69.1003 488.33 71.648L490.01 70.5622ZM487.933 62.2273V9.38636H485.933V62.2273H487.933Z" fill="black"/>
</svg>
